<?xml version="1.0" encoding="utf-8"?>
<!-- Generator: Adobe Illustrator 26.0.0, SVG Export Plug-In . SVG Version: 6.00 Build 0)  -->
<svg version="1.1" id="Layer_1" xmlns="http://www.w3.org/2000/svg" xmlns:xlink="http://www.w3.org/1999/xlink" x="0px" y="0px"
	 viewBox="0 0 122.6 122.6" style="enable-background:new 0 0 122.6 122.6;" xml:space="preserve">
<style type="text/css">
	.st0{clip-path:url(#SVGID_00000132786312789100468600000011059235050425940612_);fill:#ED1C66;}
	.st1{clip-path:url(#SVGID_00000132786312789100468600000011059235050425940612_);fill:#FFFFFF;}
</style>
<g>
	<defs>
		<rect id="SVGID_1_" width="122.6" height="122.6"/>
	</defs>
	<clipPath id="SVGID_00000029024592988766799470000009528418962707741115_">
		<use xlink:href="#SVGID_1_"  style="overflow:visible;"/>
	</clipPath>
	<path style="clip-path:url(#SVGID_00000029024592988766799470000009528418962707741115_);fill:#ED1C66;" d="M97.6,122.6H25
		c-13.8,0-25-11.2-25-25V25C0,11.2,11.2,0,25,0h72.5c13.8,0,25,11.2,25,25v72.5C122.6,111.4,111.4,122.6,97.6,122.6"/>
	<path style="clip-path:url(#SVGID_00000029024592988766799470000009528418962707741115_);fill:#FFFFFF;" d="M38.6,67
		C26,67,15.7,56.7,15.7,44.1S26,21.3,38.6,21.3c12.6,0,22.9,10.3,22.9,22.9S51.2,67,38.6,67 M38.6,28.8c-8.4,0-15.3,6.9-15.3,15.3
		c0,8.4,6.9,15.3,15.3,15.3c8.4,0,15.3-6.9,15.3-15.3C53.9,35.7,47,28.8,38.6,28.8"/>
	<path style="clip-path:url(#SVGID_00000029024592988766799470000009528418962707741115_);fill:#FFFFFF;" d="M85.3,67
		c-1.5,0-2.8-0.9-3.4-2.2L64.1,26.7c-0.9-1.9-0.1-4.2,1.8-5.1c1.9-0.9,4.2-0.1,5.1,1.8l14.3,30.7l14.3-30.7c0.9-1.9,3.2-2.7,5.1-1.8
		c1.9,0.9,2.7,3.2,1.8,5.1L88.8,64.8C88.1,66.2,86.8,67,85.3,67"/>
	<path style="clip-path:url(#SVGID_00000029024592988766799470000009528418962707741115_);fill:#FFFFFF;" d="M36.2,88.6
		c0,3.4-2.6,6.1-5.9,6.1c-3.3,0-5.9-2.7-5.9-6.1c0-3.4,2.6-6.1,5.9-6.1C33.6,82.5,36.2,85.2,36.2,88.6 M30.9,78
		c-2.5,0-4.8,1-6.5,2.7v-1.2c0-0.2,0-0.4-0.1-0.5c-0.1-0.1-0.2-0.3-0.4-0.3c-0.1-0.1-0.3-0.1-0.5-0.2c-0.2,0-0.3,0-0.5,0h-1.7
		c-0.2,0-0.4,0-0.5,0c-0.2,0-0.3,0.1-0.5,0.2c-0.1,0.1-0.3,0.2-0.4,0.3c-0.1,0.1-0.1,0.3-0.1,0.5v1.1v23.8c0,0.2,0,0.4,0.1,0.5
		c0.1,0.1,0.2,0.3,0.4,0.3c0.1,0.1,0.3,0.1,0.5,0.2c0.2,0,0.3,0,0.5,0h1.7c0.2,0,0.4,0,0.5,0c0.2,0,0.3-0.1,0.5-0.2
		c0.1-0.1,0.3-0.2,0.4-0.3c0.1-0.1,0.1-0.3,0.1-0.5v-7.8c1.7,1.7,4,2.7,6.5,2.7c5.4,0,9.8-4.7,9.8-10.6C40.7,82.8,36.3,78,30.9,78"
		/>
	<path style="clip-path:url(#SVGID_00000029024592988766799470000009528418962707741115_);fill:#FFFFFF;" d="M53.4,82.5
		c3.3,0,5.9,2.7,5.9,6.1s-2.6,6.1-5.9,6.1c-3.3,0-5.9-2.7-5.9-6.1S50.1,82.5,53.4,82.5 M43,88.6c0,5.8,4.4,10.6,9.8,10.6
		c2.5,0,4.8-1,6.5-2.7v1.3c0,0.2,0,0.4,0.1,0.5c0.1,0.1,0.2,0.3,0.4,0.3c0.1,0.1,0.3,0.1,0.5,0.2c0.2,0,0.3,0,0.5,0h1.7
		c0.2,0,0.4,0,0.5,0c0.2,0,0.3-0.1,0.5-0.2c0.1-0.1,0.3-0.2,0.4-0.3C64,98.2,64,98,64,97.8V80.5v-1.1c0-0.2,0-0.4-0.1-0.5
		c-0.1-0.1-0.2-0.3-0.4-0.3c-0.1-0.1-0.3-0.1-0.5-0.2c-0.2,0-0.3,0-0.5,0h-1.7c-0.2,0-0.4,0-0.5,0c-0.2,0-0.3,0.1-0.5,0.2
		c-0.1,0.1-0.3,0.2-0.4,0.3c-0.1,0.1-0.1,0.3-0.1,0.5v1.2c-1.7-1.7-4-2.7-6.5-2.7C47.4,78,43,82.8,43,88.6"/>
	<path style="clip-path:url(#SVGID_00000029024592988766799470000009528418962707741115_);fill:#FFFFFF;" d="M84.5,79.9
		c0-0.9-0.7-1.5-1.5-1.6v0h-2c-0.3,0-0.5,0.1-0.7,0.2c-0.2,0.1-0.3,0.3-0.4,0.6l-4.6,12.5c-0.1-0.3-4.1-11.1-4.3-11.7l-0.3-0.7
		c0-0.1-0.1-0.2-0.1-0.2v0c-0.1-0.1-0.2-0.3-0.4-0.3c-0.1-0.1-0.3-0.1-0.5-0.2c-0.2,0-0.3,0-0.5,0h-1.7l-0.2,0c-0.2,0-0.4,0-0.5,0
		c-0.2,0-0.3,0.1-0.5,0.2c-0.1,0.1-0.3,0.2-0.4,0.3c-0.1,0.1-0.1,0.3-0.1,0.5c0,0,0,0.1,0,0.2L73,97l-2.8,7.1c0,0-0.1,0.1-0.1,0.3
		c0,0.1,0,0.3,0,0.3c0,0.2,0.1,0.3,0.2,0.5c0.1,0.1,0.4,0.2,0.7,0.2h3c0.3,0,0.5-0.1,0.7-0.2c0.2-0.1,0.3-0.3,0.4-0.6l9.3-24.1l0,0
		C84.5,80.3,84.5,80.1,84.5,79.9"/>
	<path style="clip-path:url(#SVGID_00000029024592988766799470000009528418962707741115_);fill:#FFFFFF;" d="M94.1,78.2
		c-0.6-0.6-1.6-0.6-2.2,0c-0.6,0.6-0.6,1.6,0,2.2c3.5,3.5,3.5,9.1,0,12.6c-0.6,0.6-0.6,1.6,0,2.2c0.6,0.6,1.6,0.6,2.2,0
		C98.8,90.5,98.8,82.8,94.1,78.2"/>
	<path style="clip-path:url(#SVGID_00000029024592988766799470000009528418962707741115_);fill:#FFFFFF;" d="M100.7,71.6
		c-0.6-0.6-1.6-0.6-2.2,0c-0.6,0.6-0.6,1.6,0,2.2c7.1,7.1,7.1,18.7,0,25.8c-0.6,0.6-0.6,1.6,0,2.2c0.6,0.6,1.6,0.6,2.2,0
		C109,93.4,109,79.9,100.7,71.6"/>
</g>
</svg>
