<?xml version="1.0" encoding="utf-8"?>
<!-- Generator: Adobe Illustrator 24.3.0, SVG Export Plug-In . SVG Version: 6.00 Build 0)  -->
<svg version="1.1" id="Layer_1" xmlns="http://www.w3.org/2000/svg" xmlns:xlink="http://www.w3.org/1999/xlink" x="0px" y="0px"
	 viewBox="0 0 51.5 47.5" style="enable-background:new 0 0 51.5 47.5;" xml:space="preserve">
<style type="text/css">
	.st0{fill:#E62026;}
	.st1{fill:#03021D;}
</style>
<g>
	<path class="st0" d="M7.3,18.7l0.3-1.5h27.6L35,18.7H7.3z"/>
	<path class="st1" d="M20.9,20.4L19,27.9h2.1l0.7-2.7H24l-0.7,2.7h2.1l1.8-7.4h-1.9l-0.8,3.1h-2.4l0.7-3.1H20.9L20.9,20.4z
		 M28.2,20.4l-0.4,1.6H30l-1.5,5.8h2.1l1.4-5.8h2.3l0.4-1.6C34.6,20.4,28.2,20.4,28.2,20.4z M35.6,20.4l-1.9,7.4h2.1l1.2-5.1
		l0.2,5.1h1.6l2.9-5.6l-1.5,5.6h2.1l1.8-7.4h-3.1l-2.4,4.7l-0.3-4.7C38.3,20.4,35.6,20.4,35.6,20.4z"/>
	<path class="st0" d="M27,30.3l0.2-0.5h15.2l-0.2,0.5H27z"/>
</g>
</svg>
