<?xml version="1.0" encoding="utf-8"?>
<!-- Generator: Adobe Illustrator 24.3.0, SVG Export Plug-In . SVG Version: 6.00 Build 0)  -->
<svg version="1.1" id="Layer_1" xmlns="http://www.w3.org/2000/svg" xmlns:xlink="http://www.w3.org/1999/xlink" x="0px" y="0px"
	 viewBox="0 0 51.5 47.5" style="enable-background:new 0 0 51.5 47.5;" xml:space="preserve">
<style type="text/css">
	.st0{fill:#E30613;}
	.st1{fill-rule:evenodd;clip-rule:evenodd;fill:#E30613;}
	.st2{fill-rule:evenodd;clip-rule:evenodd;fill:url(#Path_14_);}
</style>
<g id="Style">
	<g id="Icons" transform="translate(-116.000000, -1597.000000)">
		<g id="Transdev_a" transform="translate(116.000000, 1597.000000)">
			<path id="Shape" class="st0" d="M45.4,21.7c-0.2,1-0.6,2-1.2,2.8h0L43,21.7h-0.8l0.7,1.5c-0.3,0.7-1,1.6-2.1,1.6
				c-0.7,0-1.1-0.3-1.1-0.9c0.3,0.1,0.5,0.1,0.8,0.1c0.7,0,1.6-0.3,1.6-1.3c0-0.7-0.6-1.1-1.3-1.1c-1.1,0-1.9,0.7-1.9,2
				c0,0.4,0.1,0.8,0.2,1.1c-0.2,0.1-0.3,0.2-0.5,0.2c-0.3,0-0.4-0.1-0.4-0.5v-3.9h-0.8v1.2c-0.3-0.1-0.5-0.2-0.8-0.2
				c-1.3,0-2,0.9-2,2c0,1.1,0.6,1.9,1.7,1.9c0.6,0,1-0.2,1.2-0.5c0.2,0.3,0.5,0.5,1,0.5c0.4,0,0.8-0.1,1.1-0.3
				c0.3,0.2,0.7,0.3,1.2,0.3c1.4,0,2.1-1,2.5-1.6l0.7,1.5h0.5c0.9-1,1.6-2.5,1.8-3.7H45.4z M36.3,24.8c-0.6,0-0.9-0.5-0.9-1.2
				c0-0.8,0.3-1.3,1.1-1.3c0.3,0,0.6,0.1,0.8,0.2v1.9c0,0,0,0,0,0C37.1,24.7,36.7,24.8,36.3,24.8L36.3,24.8z M40.6,22.2
				c0.4,0,0.6,0.2,0.6,0.5c0,0.6-0.4,0.7-1,0.7c-0.2,0-0.5,0-0.7-0.1C39.6,22.6,40,22.2,40.6,22.2z"/>
			<path id="Path" class="st1" d="M23,21.7c-0.5,0-1.1,0.1-1.5,0.4l0,0.2v2.1c-0.3,0.2-0.6,0.3-0.9,0.4c-0.6,0-0.9-0.3-1-0.8
				c0-0.1,0-0.2,0-0.4h0v-1.1h0l1.2,0v-0.7l-1.2,0v-0.1l0-1h-0.7v1.1h-0.9v0.7h0.9v1.1h0c0,0.2,0,0.3,0,0.5c0.1,0.8,0.9,1.4,1.7,1.4
				h0c0.4,0,0.7-0.1,1-0.3l0,0.2h0.7v-2.8c0.2-0.1,0.5-0.2,0.7-0.2c0.2,0,0.4,0,0.5,0.1l0.3-0.7C23.5,21.8,23.2,21.7,23,21.7z"/>
			<path id="Shape_1_" class="st0" d="M34.2,24.4c0-0.8-0.6-0.9-1-1.1c-0.4-0.1-1-0.1-1-0.5c0-0.4,0.4-0.5,0.6-0.5
				c0.4,0,0.7,0.1,1,0.3l0.3-0.6c-0.4-0.2-0.8-0.3-1.3-0.3c-0.6,0-1.4,0.3-1.4,1.1c0,0.8,0.6,0.9,1.2,1c0.4,0.1,0.7,0.2,0.7,0.5h0
				c0,0,0.1,0.5-0.8,0.5h-1c-0.6,0-0.6-0.2-0.6-0.6c0-0.2,0-1.2,0-1.2c0-1.1-0.8-1.4-1.5-1.4c-0.6,0-1.2,0.2-1.5,0.4v2.6
				c0,0.1-0.3,0.1-0.4,0.1c-0.1,0-0.4-0.1-0.4-0.3v-2.5L27,22.1c-0.4-0.2-0.9-0.3-1.4-0.3c-0.7,0-1.2,0.2-1.6,0.7
				c-0.3,0.4-0.4,1-0.3,1.7c0.2,0.8,0.9,1.4,1.8,1.4h0c0.4,0,0.8-0.1,1.1-0.4c0.2,0.2,0.6,0.4,1,0.4c0.4,0,0.8-0.1,1.1-0.4v-2.6
				c0.3-0.1,0.5-0.2,0.8-0.2c0.5,0,0.7,0.1,0.7,0.8h0v1.1c0,0.5,0.1,1.1,1.2,1.1l1.2,0v0h0.1c0.9,0,1.2-0.4,1.4-0.7
				C34.2,24.7,34.2,24.5,34.2,24.4L34.2,24.4C34.2,24.4,34.2,24.4,34.2,24.4L34.2,24.4z M26.4,24.5c-0.3,0.2-0.6,0.4-0.9,0.4
				c-0.6,0-0.9-0.4-1-0.8c-0.1-0.5,0-0.9,0.2-1.2c0.2-0.3,0.5-0.4,0.9-0.4h0c0.3,0,0.5,0,0.8,0.1C26.4,22.8,26.4,24.3,26.4,24.5z"/>
			<path id="Path_1_" class="st1" d="M14.4,19.2c0.3-0.2,0.4-0.5,0.4-0.8c0-0.3-0.3-0.6-0.6-0.7c-0.3-0.1-0.6,0-0.8,0.3
				c-0.2,0.2-0.2,0.6-0.1,0.9c0.1,0.2,0.3,0.3,0.5,0.4C14,19.3,14.2,19.3,14.4,19.2z"/>
			<path id="Path_2_" class="st1" d="M17.3,19.7c0-0.1-0.2-0.2-0.5-0.2c-1.9,0.2-2.9,0.4-6.7,0.8c-0.3,0-0.6,0.1-0.6,0.3
				c0,0.3,0.8,0.4,1.5,0.5c0.3,0.1,0.6,0.2,0.9,0.3c0.1,0,0.1,0.1,0.1,0.1s0,0.1,0,0.2c-0.7,1-1.7,2.5-2,3.1
				c-0.3,0.5,0.2,0.8,0.6,0.4c1.1-0.9,1.4-1.4,2.4-2.1c0.1-0.1,0.2-0.1,0.3,0.1c0,0.1,0,0.2,0.1,0.3c0,0.2,0,0.4,0,0.6c0,0,0,0,0,0
				c0,0,0,0.1,0,0.2c-0.1,1.1-0.8,2.2-1.5,2.9c0.7-0.2,1.3-0.6,1.8-1.2l0,0c0.1-0.1,0.2-0.2,0.3-0.4c0.4-0.6,0.7-1.3,0.8-2
				c0-0.2,0.1-0.3,0.1-0.5c0.1-1.5,0.8-2.1,2.1-2.9C17.2,20,17.3,19.9,17.3,19.7z"/>
			
				<linearGradient id="Path_14_" gradientUnits="userSpaceOnUse" x1="-178.7309" y1="315.8092" x2="-178.6333" y2="315.7806" gradientTransform="matrix(45.0044 0 0 -54.1267 8053.0498 17116.0586)">
				<stop  offset="0" style="stop-color:#E30613"/>
				<stop  offset="0.1599" style="stop-color:#E30613;stop-opacity:0.9865"/>
				<stop  offset="0.2824" style="stop-color:#E30613;stop-opacity:0.9438"/>
				<stop  offset="0.3926" style="stop-color:#E30613;stop-opacity:0.8716"/>
				<stop  offset="0.4955" style="stop-color:#E30613;stop-opacity:0.7697"/>
				<stop  offset="0.5933" style="stop-color:#E30613;stop-opacity:0.638"/>
				<stop  offset="0.6874" style="stop-color:#E30613;stop-opacity:0.4763"/>
				<stop  offset="0.7785" style="stop-color:#E30613;stop-opacity:0.2844"/>
				<stop  offset="0.865" style="stop-color:#E30613;stop-opacity:6.780000e-02"/>
				<stop  offset="0.8896" style="stop-color:#E30613;stop-opacity:0"/>
			</linearGradient>
			<path id="Path_3_" class="st2" d="M12.8,25.4c-0.3,0.5-0.8,0.8-1.3,1c-0.6,0.2-1.3,0.3-2,0.2c-0.1,0-0.3-0.1-0.4-0.1
				c-2.1-0.6-3.4-2.7-2.9-4.8s2.6-3.5,4.7-3.1v0c0.1,0,0.3,0,0.4-0.1c0.1-0.1,0.1-0.2,0.1-0.4c0-0.1-0.2-0.2-0.3-0.2
				c-2.6-0.5-5,1.2-5.6,3.7s1,5.1,3.6,5.7c0.1,0,0.2,0,0.3,0.1c0.8,0.1,1.7,0.1,2.5-0.2c0.7-0.7,1.4-1.8,1.5-2.9c0-0.1,0-0.1,0-0.2
				C13.3,24.6,13.1,25,12.8,25.4z"/>
			<path id="Path_4_" class="st1" d="M18.6,28h0.2v-0.3h0.4V28h0.4v0.3h-0.4v0.5c0,0.1,0.1,0.2,0.2,0.2c0.1,0,0.2,0,0.2-0.1v0.3
				c-0.1,0.1-0.2,0.1-0.3,0.1c-0.2,0-0.4-0.1-0.4-0.4v-0.6h-0.2V28z"/>
			<path id="Path_5_" class="st1" d="M19.9,27.3h0.4V28c0.1,0,0.2-0.1,0.3-0.1c0.3,0,0.5,0.1,0.5,0.5v0.8h-0.4v-0.8
				c0-0.1,0-0.1-0.1-0.2s-0.1-0.1-0.2-0.1c-0.1,0-0.2,0-0.2,0v1h-0.4V27.3z"/>
			<path id="Shape_2_" class="st0" d="M21.7,28.7L21.7,28.7c0,0.2,0.2,0.3,0.4,0.3c0.2,0,0.3,0,0.4-0.1v0.3
				c-0.1,0.1-0.3,0.1-0.5,0.1c-0.4,0-0.7-0.3-0.7-0.7c0-0.4,0.3-0.7,0.6-0.7c0.4,0,0.6,0.3,0.6,0.6v0.2L21.7,28.7z M22.3,28.5
				c0-0.2-0.1-0.3-0.2-0.3c-0.2,0-0.3,0.1-0.3,0.3H22.3z"/>
			<path id="Path_6_" class="st1" d="M25.1,28.4c0-0.1-0.1-0.2-0.2-0.2c-0.1,0-0.2,0-0.2,0c0,0,0,0.1,0,0.1v0.8h-0.4v-0.8
				c0-0.1-0.1-0.2-0.2-0.2c-0.1,0-0.1,0-0.2,0v1h-0.4V28c0.2-0.1,0.4-0.1,0.6-0.1c0.1,0,0.3,0,0.4,0.1c0.1-0.1,0.3-0.1,0.4-0.1
				c0.3,0,0.5,0.1,0.5,0.5v0.8h-0.4L25.1,28.4z"/>
			<path id="Shape_3_" class="st0" d="M26.5,27.9c0.4,0,0.7,0.3,0.7,0.7c0,0.4-0.3,0.7-0.7,0.7s-0.7-0.3-0.7-0.7
				c0-0.2,0.1-0.4,0.2-0.5S26.3,27.9,26.5,27.9z M26.5,28.2c-0.2,0-0.3,0.1-0.3,0.4c0,0.2,0.1,0.4,0.3,0.4s0.3-0.1,0.3-0.4
				C26.8,28.4,26.7,28.2,26.5,28.2z"/>
			<path id="Shape_4_" class="st0" d="M27.5,27.3h0.4V28c0.1,0,0.2-0.1,0.3-0.1c0.2,0,0.3,0.1,0.5,0.2c0.1,0.1,0.2,0.3,0.2,0.5
				c0,0.4-0.3,0.7-0.8,0.7c-0.2,0-0.4,0-0.5-0.1V27.3z M27.8,29c0.1,0,0.1,0,0.2,0c0.1,0,0.2,0,0.3-0.1c0.1-0.1,0.1-0.2,0.1-0.3
				c0-0.1,0-0.2-0.1-0.2c-0.1-0.1-0.2-0.1-0.2-0.1c-0.1,0-0.2,0-0.2,0.1V29z"/>
			<path id="Shape_5_" class="st0" d="M29.1,27.6c0-0.1,0-0.2,0.1-0.2c0.1,0,0.2,0,0.2,0s0.1,0.1,0,0.2c0,0.1-0.1,0.1-0.2,0.1
				C29.2,27.8,29.1,27.7,29.1,27.6z M29.4,29.3h-0.4V28h0.4V29.3z"/>
			<polygon id="Path_7_" class="st1" points="30.2,29.3 29.9,29.3 29.9,27.3 30.2,27.3 			"/>
			<path id="Shape_6_" class="st0" d="M30.6,27.6c0-0.1,0-0.2,0.1-0.2c0.1,0,0.2,0,0.2,0c0.1,0.1,0.1,0.1,0,0.2
				c0,0.1-0.1,0.1-0.2,0.1C30.7,27.8,30.6,27.7,30.6,27.6z M31,29.3h-0.4V28H31V29.3z"/>
			<path id="Path_8_" class="st1" d="M31.2,28h0.2v-0.3h0.4V28h0.4v0.3h-0.4v0.5c0,0.1,0.1,0.2,0.2,0.2c0.1,0,0.2,0,0.2-0.1v0.3
				c-0.1,0.1-0.2,0.1-0.3,0.1c-0.2,0-0.4-0.1-0.4-0.4v-0.6h-0.2V28z"/>
			<polygon id="Path_9_" class="st1" points="33.1,28.9 33.4,28 33.8,28 33,29.8 32.7,29.8 32.9,29.3 32.4,28 32.7,28 			"/>
			<path id="Path_10_" class="st1" d="M35.6,28.4c-0.1-0.1-0.2-0.1-0.3-0.1c-0.1,0-0.2,0-0.3,0.1c-0.1,0.1-0.1,0.2-0.1,0.3
				c0,0.1,0,0.2,0.1,0.3c0.1,0.1,0.2,0.1,0.3,0.1c0.1,0,0.2,0,0.3-0.1v0.3c-0.1,0.1-0.2,0.1-0.4,0.1c-0.4,0-0.7-0.3-0.7-0.7
				c0-0.2,0.1-0.4,0.2-0.5c0.1-0.1,0.3-0.2,0.5-0.2c0.1,0,0.3,0,0.4,0.1V28.4z"/>
			<path id="Shape_7_" class="st0" d="M36.6,27.9c0.4,0,0.7,0.3,0.7,0.7s-0.3,0.7-0.7,0.7c-0.4,0-0.7-0.3-0.7-0.7
				c0-0.2,0.1-0.4,0.2-0.5S36.4,27.9,36.6,27.9z M36.6,28.2c-0.2,0-0.3,0.1-0.3,0.4c0,0.2,0.1,0.4,0.3,0.4c0.2,0,0.3-0.1,0.3-0.4
				C36.9,28.4,36.8,28.2,36.6,28.2z"/>
			<path id="Path_11_" class="st1" d="M39.1,28.4c0-0.1-0.1-0.2-0.2-0.2c-0.1,0-0.2,0-0.2,0c0,0,0,0.1,0,0.1v0.8h-0.4v-0.8
				c0-0.1-0.1-0.2-0.2-0.2c-0.1,0-0.1,0-0.2,0v1h-0.4V28c0.2-0.1,0.4-0.1,0.6-0.1c0.1,0,0.3,0,0.4,0.1c0.1-0.1,0.3-0.1,0.4-0.1
				c0.3,0,0.5,0.1,0.5,0.5v0.8h-0.4V28.4z"/>
			<path id="Shape_8_" class="st0" d="M39.9,28c0.2-0.1,0.4-0.1,0.6-0.1c0.4,0,0.7,0.2,0.7,0.6c0,0.4-0.3,0.7-0.7,0.7
				c-0.1,0-0.1,0-0.2,0v0.5h-0.4V28z M40.2,29c0.1,0,0.1,0,0.2,0c0.2,0,0.4-0.1,0.4-0.4c0-0.1,0-0.2-0.1-0.3
				c-0.1-0.1-0.2-0.1-0.3-0.1c-0.1,0-0.1,0-0.2,0V29z"/>
			<path id="Shape_9_" class="st0" d="M42.1,28.4c0-0.1-0.1-0.2-0.2-0.2c-0.1,0-0.3,0-0.4,0.1V28c0.1-0.1,0.3-0.1,0.4-0.1
				c0.3,0,0.5,0.1,0.5,0.5v0.8c-0.2,0-0.3,0.1-0.5,0.1c-0.3,0-0.6-0.1-0.6-0.4c0-0.3,0.2-0.4,0.6-0.4L42.1,28.4L42.1,28.4z
				 M42.1,28.7H42c-0.2,0-0.3,0-0.3,0.2c0,0.1,0.1,0.2,0.2,0.2c0,0,0.1,0,0.1,0V28.7z"/>
			<path id="Path_12_" class="st1" d="M42.9,28c0.2-0.1,0.4-0.1,0.6-0.1c0.3,0,0.6,0.1,0.6,0.5v0.8h-0.4v-0.8c0-0.1,0-0.1-0.1-0.2
				c0,0-0.1-0.1-0.2-0.1c-0.1,0-0.2,0-0.2,0v1h-0.4V28z"/>
			<polygon id="Path_13_" class="st1" points="44.9,28.9 45.3,28 45.6,28 44.9,29.8 44.6,29.8 44.8,29.3 44.2,28 44.6,28 			"/>
		</g>
	</g>
</g>
</svg>
