<?xml version="1.0" encoding="utf-8"?>
<!-- Generator: Adobe Illustrator 24.3.0, SVG Export Plug-In . SVG Version: 6.00 Build 0)  -->
<svg version="1.1" id="Layer_1" xmlns="http://www.w3.org/2000/svg" xmlns:xlink="http://www.w3.org/1999/xlink" x="0px" y="0px"
	 viewBox="0 0 51.5 47.5" style="enable-background:new 0 0 51.5 47.5;" xml:space="preserve">
<style type="text/css">
	.st0{fill:#00BECD;}
</style>
<g>
	<path class="st0" d="M26.9,31.1h-0.3v-0.3c-0.2,0.2-0.4,0.3-0.7,0.3c-0.6,0-1-0.4-1-1s0.4-1,1-1c0.3,0,0.5,0.1,0.7,0.3v-0.3h0.3
		V31.1z M25.2,30.1c0,0.4,0.3,0.7,0.7,0.7c0.4,0,0.7-0.3,0.7-0.7c0-0.4-0.3-0.7-0.7-0.7C25.5,29.4,25.2,29.8,25.2,30.1"/>
	<path class="st0" d="M35.6,29.4l-0.2,0.2c-0.1-0.1-0.3-0.2-0.5-0.2c-0.4,0-0.7,0.3-0.7,0.7c0,0.4,0.3,0.7,0.7,0.7
		c0.2,0,0.4-0.1,0.5-0.2l0.2,0.2c-0.2,0.2-0.4,0.3-0.7,0.3c-0.6,0-1-0.4-1-1c0-0.6,0.4-1,1-1C35.2,29.1,35.4,29.2,35.6,29.4"/>
	<path class="st0" d="M37.9,30.1c0,0.6-0.4,1-1,1s-1-0.4-1-1c0-0.6,0.4-1,1-1C37.4,29.1,37.9,29.6,37.9,30.1 M36.1,30.1
		c0,0.4,0.3,0.7,0.7,0.7c0.4,0,0.7-0.3,0.7-0.7c0-0.4-0.3-0.7-0.7-0.7C36.4,29.4,36.1,29.7,36.1,30.1"/>
	<path class="st0" d="M41.5,29.9v1.2h-0.3V30c0-0.4-0.2-0.6-0.5-0.6c-0.3,0-0.6,0.2-0.6,0.6v1.1h-0.3V30c0-0.4-0.2-0.6-0.5-0.6
		c-0.3,0-0.6,0.2-0.6,0.6v1.1h-0.3v-2h0.3v0.3c0.2-0.2,0.4-0.3,0.6-0.3c0.3,0,0.6,0.2,0.7,0.4c0.2-0.3,0.5-0.4,0.7-0.4
		C41.1,29.1,41.5,29.4,41.5,29.9"/>
	<path class="st0" d="M43.9,30.1c0,0.6-0.4,1-1,1c-0.3,0-0.5-0.1-0.7-0.3v1.1h-0.3v-2.8h0.3v0.3c0.2-0.2,0.4-0.3,0.7-0.3
		C43.4,29.1,43.9,29.6,43.9,30.1 M42.2,30.1c0,0.4,0.3,0.7,0.7,0.7c0.4,0,0.7-0.3,0.7-0.7c0-0.4-0.3-0.7-0.7-0.7
		C42.4,29.4,42.2,29.7,42.2,30.1"/>
	<path class="st0" d="M46.1,31.1h-0.3v-0.3c-0.2,0.2-0.4,0.3-0.7,0.3c-0.6,0-1-0.4-1-1s0.4-1,1-1c0.3,0,0.5,0.1,0.7,0.3v-0.3h0.3
		V31.1z M44.5,30.1c0,0.4,0.3,0.7,0.7,0.7c0.4,0,0.7-0.3,0.7-0.7c0-0.4-0.3-0.7-0.7-0.7C44.8,29.4,44.5,29.8,44.5,30.1"/>
	<path class="st0" d="M48.4,29.9v1.2h-0.3V30c0-0.4-0.2-0.6-0.5-0.6c-0.3,0-0.6,0.2-0.6,0.6v1.1h-0.3v-2H47v0.3
		c0.2-0.2,0.4-0.3,0.6-0.3C48.1,29.1,48.4,29.4,48.4,29.9"/>
	<polygon class="st0" points="49.2,32 48.8,32 49.5,30.7 48.6,29.2 49,29.2 49.7,30.4 50.4,29.2 50.8,29.2 	"/>
	<path class="st0" d="M32.5,28.2h-4.2c-0.3,0-0.5,0.2-0.5,0.5v2.6c0,0.3,0.2,0.5,0.5,0.5h4.2c0.3,0,0.5-0.2,0.5-0.5v-2.6
		C33,28.5,32.7,28.2,32.5,28.2 M32.6,31.3c0,0.1-0.1,0.2-0.1,0.2h-4.2c-0.1,0-0.1-0.1-0.1-0.2v-2.6c0-0.1,0.1-0.2,0.1-0.2h4.2
		c0.1,0,0.1,0.1,0.1,0.2V31.3z"/>
	<path class="st0" d="M29.4,31.2h-0.9v-2.4h0.9c0.6,0,1,0.4,1,1.2C30.3,30.7,30.1,31.2,29.4,31.2 M29.7,30.1c0-0.5-0.1-0.9-0.6-0.9
		h-0.1v1.6h0.2C29.6,30.8,29.7,30.6,29.7,30.1"/>
	<path class="st0" d="M31.8,30c0.2,0,0.4-0.2,0.4-0.6c0-0.1,0-0.6-0.7-0.6h-1v2.4h0.8c0.2,0,0.9,0,0.9-0.7
		C32.3,30.4,32.3,30.1,31.8,30 M31.1,29.2h0.2c0.3,0,0.4,0.1,0.4,0.3c0,0.2-0.1,0.3-0.3,0.3h-0.2L31.1,29.2L31.1,29.2z M31.4,30.8
		h-0.2v-0.6h0.3c0.3,0,0.4,0.2,0.4,0.3C31.8,30.8,31.5,30.8,31.4,30.8"/>
	<path class="st0" d="M36.1,19.3l2.8,6.6c0.1,0.4,0.4,0.5,0.7,0.5c0.3,0,0.6-0.2,0.7-0.5l2.8-6.6h-1.2l-2.3,5.5l-2.3-5.5H36.1z"/>
	<path class="st0" d="M32,19.1c-1.5,0-2.6,1.1-2.6,2.6v4.7c0.7,0,1.1-0.4,1.1-1.1v-3.7c0-0.9,0.6-1.5,1.5-1.5c0.4,0,0.7,0.1,1,0.4
		l0.6-0.8C33.1,19.3,32.6,19.1,32,19.1"/>
	<path class="st0" d="M27.5,19.1c-1.5,0-2.6,1.1-2.6,2.6v4.7c0.7,0,1.1-0.4,1.1-1.1v-3.7c0-0.9,0.6-1.5,1.5-1.5c0.4,0,0.7,0.1,1,0.4
		l0.6-0.8C28.7,19.3,28.2,19.1,27.5,19.1"/>
	<path class="st0" d="M46.8,19.1c-2.1,0-3.7,1.6-3.7,3.7s1.6,3.7,3.7,3.7c0.9,0,1.8-0.3,2.5-0.9l0.1-0.1l0,0.2
		c0.1,0.5,0.5,0.9,1.1,0.9v-3.7C50.5,20.7,48.9,19.1,46.8,19.1 M46.8,25.4c-1.5,0-2.6-1.2-2.6-2.7c0-1.5,1.1-2.7,2.6-2.7
		c1.5,0,2.6,1.2,2.6,2.7C49.4,24.3,48.3,25.4,46.8,25.4"/>
	<path class="st0" d="M19.8,19.1c-2.1,0-3.7,1.6-3.7,3.7s1.6,3.7,3.7,3.7c0.9,0,1.8-0.3,2.5-0.9l0.1-0.1l0,0.2
		c0,0.5,0.4,0.9,1.1,0.9v-3.7C23.5,20.7,21.9,19.1,19.8,19.1 M19.8,25.4c-1.5,0-2.6-1.2-2.6-2.7c0-1.5,1.1-2.7,2.6-2.7
		c1.5,0,2.6,1.2,2.6,2.7C22.4,24.3,21.3,25.4,19.8,25.4"/>
	<path class="st0" d="M34.3,19.3v7.1c0.7,0,1.1-0.4,1.1-1.1v-6.1H34.3z"/>
	<path class="st0" d="M34.8,16.9c-0.4,0-0.7,0.3-0.7,0.7c0,0.4,0.3,0.7,0.7,0.7c0.4,0,0.7-0.3,0.7-0.7
		C35.5,17.3,35.2,16.9,34.8,16.9"/>
	<path class="st0" d="M8.7,23c0.6,0.2,1.2,0.3,1.7,0.5c0.2,0.4,0.4,0.8,0.6,1.1c0.3,0,0.7,0,1,0c-0.1-0.2-0.2-0.4-0.3-0.6
		c0.3,0.2,0.7,0.3,1,0.5c0.8-0.2,0.8-0.4,0.5-0.7c-1-1-3.7-1.7-5-2C8.3,22.2,8.7,22.8,8.7,23"/>
	<path class="st0" d="M2.2,22.4c0.2,0,0.4-0.1,0.7-0.1C3,22,3.2,21.7,3.4,21.4c-0.9,0-1.4,0.2-1.6,0.3C1.6,21.8,1.7,22,2.2,22.4"/>
	<path class="st0" d="M13.7,24.3c-0.3,1.4-5.5,0.5-6.4,0.3c-1.1-0.2-6.3-1.5-5.9-2.9c-0.1,0.2-0.2,0.7-0.2,0.9
		c0,0.2,0.1,0.5,0.1,0.6c0.2,0.3,0.6,0.6,1.2,0.9c-0.4,0.8-1.6,3.4-1.6,4.7c0,0.5,0.1,0.6,0.5,0.3c0.1-0.1,0.3-0.2,0.4-0.3
		c0.2-1.4,1.2-3.4,1.6-4.3c0.5,0.2,1.1,0.4,1.6,0.6c-0.5,0.8-1.9,3.2-3.1,4.1c-0.6,0.5-0.9,0.6-1.1,0.5c0.1,0.1,0.5,0.3,0.6,0.4
		C1.6,30,1.8,30.1,2,30c1.2-0.5,3.1-3.5,3.8-4.8c1,0.3,1.9,0.5,3,0.6c0.6,0.9,1.9,3,3.1,3.9c0.4,0.4,0.7,0.4,1,0.2
		c0.3-0.1,0.5-0.3,0.6-0.4c-0.1,0-0.3,0-0.6-0.2c-1-0.6-2.5-3-2.8-3.5c0.5,0.1,1,0.1,1.5,0c0.4,0.8,0.7,1.7,0.9,2.6
		c0.2,0.2,0.4,0.4,0.7,0.6c0.2,0.1,0.2,0.1,0.2-0.1c0-0.8-0.6-2.5-0.9-3.1c0.5-0.1,0.8-0.3,0.9-0.7C13.5,25,13.7,24.5,13.7,24.3"/>
	<path class="st0" d="M5.4,19c-0.9,1.2-1.7,2.5-2.4,3.9c0.3,0.1,0.6,0.3,0.9,0.4c0.2-0.3,0.3-0.6,0.5-0.9c0.5,0,0.9,0.1,1.4,0.2
		c0.1-0.3,0.3-0.6,0.4-0.9c-0.5-0.1-0.9-0.1-1.3-0.2c0.3-0.5,0.6-0.9,0.9-1.4c0.2,0.4,0.4,0.8,0.6,1.3c0.2-0.4,0.3-0.8,0.5-1.2
		c-0.4-1-1-2.3-1.2-3.5c-0.1-0.3-0.1-0.8,0.2-1c-0.2,0.1-0.6,0.3-0.8,0.4c-0.2,0.1-0.3,0.4-0.3,0.6C4.8,17.2,5.1,18.1,5.4,19"/>
	<path class="st0" d="M5.6,23.7c0.3,0.1,0.7,0.2,0.9,0.3c0.2-0.4,0.4-0.8,0.6-1.2c0.3,0.5,0.5,1,0.8,1.5c0.4,0.1,0.8,0.1,1.2,0.2
		c-0.3-0.5-1.3-2.2-1.5-2.8c0.3-0.6,0.5-1.2,0.7-1.8c0.4,0.6,0.8,1.3,1.2,2c0.4,0.1,0.9,0.3,1.3,0.4c-0.7-1.2-1.4-2.4-2.1-3.5
		c0.1-0.4,0.2-0.7,0.1-1.1c0-0.2-0.1-0.5-0.3-0.6c-0.2-0.1-0.6-0.4-0.8-0.4C8,16.8,8,17.2,8,17.5C7.9,18.7,6.9,21.3,5.6,23.7"/>
	<path class="st0" d="M6.3,17.7c0.1,0.2,0.3,0.9,0.4,1c0.2-0.2,0.3-0.4,0.5-0.5c0.1,0.1,0.2,0.2,0.2,0.3c0.1-0.3,0.2-0.9,0.2-1.2
		c0-0.5-0.1-0.6-0.5-0.3C6.8,17.2,6.6,17.5,6.3,17.7"/>
	<path class="st0" d="M6.1,16.9c0.1,0.1,0.2,0.2,0.2,0.3C6.5,17,6.8,16.8,7,16.6c-0.2-0.2-0.5-0.5-0.7-0.7C6.1,15.8,6,15.8,6,16.2
		C6,16.4,6.1,16.7,6.1,16.9"/>
</g>
</svg>
