<?xml version="1.0" encoding="utf-8"?>
<!-- Generator: Adobe Illustrator 24.3.0, SVG Export Plug-In . SVG Version: 6.00 Build 0)  -->
<svg version="1.1" id="Layer_1" xmlns="http://www.w3.org/2000/svg" xmlns:xlink="http://www.w3.org/1999/xlink" x="0px" y="0px"
	 viewBox="0 0 51.5 47.5" style="enable-background:new 0 0 51.5 47.5;" xml:space="preserve">
<style type="text/css">
	.st0{fill-rule:evenodd;clip-rule:evenodd;fill:#D82331;}
	.st1{fill-rule:evenodd;clip-rule:evenodd;}
</style>
<g>
	<path class="st0" d="M41,19.1h-3.4l-1.8,8.7h-3l1.8-8.7H23.8l0.5-2.2h17.2L41,19.1L41,19.1z"/>
	<path class="st0" d="M30.4,23.5l0.4-2.2h-7.6l-0.5,2.2L30.4,23.5"/>
	<path class="st0" d="M15.8,19.2H17c1,0,2,0.1,1.7,1.2c-0.3,1.1-1.2,1.2-2.2,1.2h-1.2l-0.5,2.1H16c1.2,0,1.5,0.7,1.5,1.9
		c0,0.8,0,1.5-0.1,2.3h12.1l0.4-2.2h-9.6c0-0.1,0-0.3,0-0.5c0-0.8,0-2.4-1.5-2.6l0-0.1c1.6-0.3,2.5-0.9,3-2.8
		c0.3-2.1-1.5-2.8-3.6-2.8l-2-0.1L15.8,19.2z M10.6,27.8h0.7L13.6,17h-0.7L10.6,27.8z"/>
	<path class="st1" d="M11,29.6c0-0.1,0-0.2,0-0.3h0c0,0.1-0.1,0.2-0.1,0.3l-0.2,0.3h0.4L11,29.6z M11.2,30.5l0-0.3h-0.6l-0.2,0.3H10
		l0.9-1.7h0.4l0.3,1.7L11.2,30.5L11.2,30.5z M12.8,29.6c0-0.1,0-0.2,0-0.3h0c0,0.1-0.1,0.2-0.1,0.3l-0.2,0.3h0.4L12.8,29.6
		L12.8,29.6z M13,30.5l0-0.3h-0.6l-0.2,0.3h-0.4l0.9-1.7h0.4l0.3,1.7L13,30.5L13,30.5z M14.5,29.1c0,0-0.1,0-0.1,0l-0.1,0.4
		c0,0,0.1,0,0.1,0c0.2,0,0.4-0.1,0.4-0.3C14.7,29.2,14.6,29.1,14.5,29.1L14.5,29.1z M14.7,29.8c0,0.1,0.1,0.1,0.1,0.2l0.2,0.5h-0.4
		l-0.3-0.7h0l-0.1,0.7h-0.4l0.3-1.7c0.1,0,0.3,0,0.5,0c0.4,0,0.5,0.1,0.5,0.4C15.1,29.5,15,29.7,14.7,29.8L14.7,29.8z M16.3,29.2
		c-0.1,0-0.1,0-0.2,0l-0.2,1c0,0,0.1,0,0.1,0c0.4,0,0.6-0.5,0.6-0.7C16.6,29.3,16.5,29.2,16.3,29.2L16.3,29.2z M16,30.5
		c-0.2,0-0.4,0-0.5,0l0.3-1.7c0.1,0,0.3,0,0.5,0c0.4,0,0.7,0.2,0.7,0.6C17,30,16.6,30.5,16,30.5L16,30.5z M17.7,30.5h-0.4l0.3-1.7
		H18L17.7,30.5 M19.7,29.2c-0.1-0.1-0.3-0.1-0.4-0.1c-0.4,0-0.6,0.3-0.6,0.7c0,0.2,0.1,0.3,0.4,0.3c0.1,0,0.1,0,0.2,0l0.1-0.5h0.4
		l-0.2,0.8c-0.2,0.1-0.4,0.1-0.6,0.1c-0.5,0-0.7-0.3-0.7-0.6c0-0.6,0.4-1.1,1.1-1.1c0.2,0,0.3,0,0.5,0.1L19.7,29.2 M22.3,29.2
		c-0.3,0-0.5,0.4-0.5,0.7c0,0.2,0.1,0.3,0.3,0.3c0.3,0,0.5-0.3,0.5-0.7C22.5,29.3,22.5,29.2,22.3,29.2L22.3,29.2z M22,30.5
		c-0.4,0-0.6-0.2-0.6-0.6c0-0.6,0.4-1.1,1-1.1c0.4,0,0.6,0.2,0.6,0.6C22.9,30.1,22.5,30.5,22,30.5z M24.6,30.5h-0.4l-0.2-0.7
		c0-0.1-0.1-0.3-0.1-0.4c0,0.1,0,0.2-0.1,0.4l-0.1,0.7h-0.4l0.3-1.7H24l0.2,0.7c0,0.1,0.1,0.3,0.1,0.4c0-0.1,0-0.3,0.1-0.4l0.1-0.6
		h0.4L24.6,30.5 M26,29.2c-0.1,0-0.1,0-0.2,0l-0.2,1c0,0,0.1,0,0.1,0c0.4,0,0.6-0.5,0.6-0.7C26.3,29.3,26.3,29.2,26,29.2z
		 M25.7,30.5c-0.2,0-0.4,0-0.5,0l0.3-1.7c0.1,0,0.3,0,0.5,0c0.4,0,0.7,0.2,0.7,0.6C26.7,30,26.4,30.5,25.7,30.5L25.7,30.5z
		 M29.2,29.1c0,0-0.1,0-0.1,0L29,29.6c0,0,0.1,0,0.1,0c0.2,0,0.3-0.1,0.3-0.3C29.5,29.2,29.4,29.1,29.2,29.1L29.2,29.1z M29.4,29.8
		c0,0.1,0.1,0.1,0.1,0.2l0.2,0.5h-0.4L29,29.9h0l-0.1,0.7h-0.4l0.3-1.7c0.1,0,0.3,0,0.5,0c0.4,0,0.5,0.1,0.5,0.4
		C29.9,29.5,29.7,29.7,29.4,29.8L29.4,29.8z M31.8,30.5h-0.5l0-0.8c0-0.1,0-0.2,0-0.4h0c0,0.1-0.1,0.2-0.1,0.4l-0.3,0.8h-0.4
		l-0.1-1.7h0.4l0,0.8c0,0.1,0,0.2,0,0.3h0c0-0.1,0.1-0.2,0.1-0.3l0.4-0.8h0.4l0.1,0.8c0,0.1,0,0.2,0,0.3h0c0-0.1,0.1-0.2,0.1-0.3
		l0.3-0.8h0.4L31.8,30.5 M35.6,29.2c-0.1-0.1-0.3-0.1-0.4-0.1c-0.4,0-0.6,0.3-0.6,0.7c0,0.2,0.1,0.3,0.4,0.3c0.1,0,0.1,0,0.2,0
		l0.1-0.5h0.4l-0.2,0.8c-0.2,0.1-0.4,0.1-0.6,0.1c-0.5,0-0.7-0.3-0.7-0.6c0-0.6,0.4-1.1,1.1-1.1c0.2,0,0.3,0,0.5,0.1L35.6,29.2
		 M33.8,29.2l-0.9,0l0.1-0.3h0.9 M33.7,29.5h-0.9l-0.1,0.3c0,0,0.4,0,0.6,0h0.3 M33.6,30.2h-0.9l-0.1,0.3h0.9 M28.2,29.2h-0.5
		l-0.1,0.3h0.5l-0.1,0.3h-0.5l-0.1,0.4H28L28,30.5H27l0.3-1.7h0.9L28.2,29.2"/>
</g>
</svg>
