<svg xmlns="http://www.w3.org/2000/svg" width="14.166" height="9.444" viewBox="0 0 14.166 9.444">
  <g id="Group_681" data-name="Group 681" transform="translate(-49.006 -219.34)">
    <path id="Path_293" data-name="Path 293" d="M7.968,85.33H6.2v3.837H0v1.771H6.2v3.837H7.968V90.937h6.2V89.166h-6.2Z" transform="translate(49.006 134.01)" fill="#d80027"/>
    <g id="Group_118" data-name="Group 118" transform="translate(57.628 225.704)">
      <path id="Path_294" data-name="Path 294" d="M393.785,315.358l3.271,1.817v-1.817Z" transform="translate(-391.513 -315.358)" fill="#0052b4"/>
      <path id="Path_295" data-name="Path 295" d="M311.652,315.358l5.543,3.08v-.871l-3.976-2.209Z" transform="translate(-311.652 -315.358)" fill="#0052b4"/>
      <path id="Path_296" data-name="Path 296" d="M315.719,347.257,311.652,345v2.259Z" transform="translate(-311.652 -344.178)" fill="#0052b4"/>
    </g>
    <path id="Path_297" data-name="Path 297" d="M311.652,315.358l5.543,3.08v-.871l-3.976-2.209Z" transform="translate(-254.023 -89.653)" fill="#f0f0f0"/>
    <path id="Path_298" data-name="Path 298" d="M311.652,315.358l5.543,3.08v-.871l-3.976-2.209Z" transform="translate(-254.023 -89.653)" fill="#d80027"/>
    <g id="Group_119" data-name="Group 119" transform="translate(49.006 225.704)">
      <path id="Path_299" data-name="Path 299" d="M2.5,315.356,0,316.744v-1.389Z" transform="translate(0 -315.356)" fill="#0052b4"/>
      <path id="Path_300" data-name="Path 300" d="M30.329,329.51V332.2H25.491Z" transform="translate(-24.786 -329.118)" fill="#0052b4"/>
    </g>
    <path id="Path_301" data-name="Path 301" d="M3.976,315.358,0,317.567v.871H0l5.543-3.08Z" transform="translate(49.006 -89.653)" fill="#d80027"/>
    <g id="Group_120" data-name="Group 120" transform="translate(49.006 219.34)">
      <path id="Path_302" data-name="Path 302" d="M3.271,132.775,0,130.958v1.817Z" transform="translate(0 -129.695)" fill="#0052b4"/>
      <path id="Path_303" data-name="Path 303" d="M5.543,88.409,0,85.33V86.2l3.976,2.209Z" transform="translate(0 -85.33)" fill="#0052b4"/>
      <path id="Path_304" data-name="Path 304" d="M53.366,85.33l4.067,2.259V85.33Z" transform="translate(-51.889 -85.33)" fill="#0052b4"/>
    </g>
    <path id="Path_305" data-name="Path 305" d="M5.543,88.409,0,85.33V86.2l3.976,2.209Z" transform="translate(49.006 134.01)" fill="#f0f0f0"/>
    <path id="Path_306" data-name="Path 306" d="M5.543,88.409,0,85.33V86.2l3.976,2.209Z" transform="translate(49.006 134.01)" fill="#d80027"/>
    <g id="Group_121" data-name="Group 121" transform="translate(57.628 219.34)">
      <path id="Path_307" data-name="Path 307" d="M421.659,147.834l2.5-1.389v1.389Z" transform="translate(-418.615 -144.755)" fill="#0052b4"/>
      <path id="Path_308" data-name="Path 308" d="M311.652,88.019V85.331h4.838Z" transform="translate(-311.652 -85.331)" fill="#0052b4"/>
    </g>
    <path id="Path_309" data-name="Path 309" d="M313.22,88.409,317.2,86.2V85.33h0l-5.543,3.08Z" transform="translate(-254.023 134.01)" fill="#d80027"/>
  </g>
</svg>
