<?xml version="1.0" encoding="utf-8"?>
<!-- Generator: Adobe Illustrator 24.3.0, SVG Export Plug-In . SVG Version: 6.00 Build 0)  -->
<svg version="1.1" id="Layer_1" xmlns="http://www.w3.org/2000/svg" xmlns:xlink="http://www.w3.org/1999/xlink" x="0px" y="0px"
	 viewBox="0 0 51.5 47.5" style="enable-background:new 0 0 51.5 47.5;" xml:space="preserve">
<style type="text/css">
	.st0{fill-rule:evenodd;clip-rule:evenodd;fill:#FF7C00;}
</style>
<g id="Symbols">
	<g id="Logo">
		<g id="path3463" transform="translate(0.000000, 7.000000)">
			<path class="st0" d="M32.9,13.8c0-0.2,0.2-0.3,0.4-0.3h4.5l-0.3,1.3l-3.4,4.2c0.3,0,1,0,1.5,0h1.1l-0.3,1.7h-5l0.2-1.3l3.4-4.2
				c-0.3,0-0.8,0-1.4,0h-1.1L32.9,13.8L32.9,13.8z M43.6,13.5h-4.5c-0.2,0-0.4,0.2-0.4,0.3l-0.3,1.3h1.1c0.7,0,1.2,0,1.4,0l-3.4,4.2
				l-0.2,1.3c0,0,0,0,0.1,0c0.2,0,1.1-0.1,2.5,0.2c0.1,0,0.2,0.1,0.4,0.1c0,0,0,0,0,0l0,0c0.7,0.1,1.4,0.2,2.5,0.1l0.3-1.6
				c-1.5,0.2-2.3-0.1-3.3-0.3l3.4-4.3L43.6,13.5L43.6,13.5z M31.8,13.5h-1.5c-0.2,0-0.3,0.1-0.4,0.3l0,0L29.5,16
				c-0.5,2.7-1.5,3.1-2.4,3.1c-0.5,0-0.6-0.4-0.4-1.2l0.9-4.5H26c-0.2,0-0.3,0.1-0.4,0.3l0,0l-0.9,4.6c-0.2,1.3,0.1,2.3,1.4,2.4
				c0,0,0.3,0,0.5,0c1-0.1,1.7-0.4,2.3-1.1c-0.1,0.4-0.2,0.7-0.2,0.9h1.7c0.1-0.9,0.4-2.4,0.6-3.4L31.8,13.5L31.8,13.5z M24.3,15.5
				c0,2.7-1.2,5.2-4.6,5.2c-0.9,0-1.7-0.1-2.5-0.3l1.7-9.1l0,0l0,0c0-0.2,0.2-0.3,0.4-0.3h1.5l-0.4,2.1c-0.1,0.4-0.2,0.8-0.3,1.3
				c0.5-0.5,1.3-1.1,2.6-1.1C23.7,13.3,24.3,14,24.3,15.5L24.3,15.5z M22.4,15.9c0-0.7-0.2-1-0.7-1c-1,0-1.8,1-2.4,3.8l-0.1,0.5
				c0.2,0.1,0.5,0.1,0.8,0.1C21.7,19.3,22.4,17.4,22.4,15.9L22.4,15.9z M16.4,21.1l-0.3,1.6c-2.6,0.4-3.3-0.7-5.5-0.4l0.2-1.3l0,0
				c0-0.1,0.1-0.2,0.2-0.2c-2.1-0.2-3.1-1.5-3.1-3.5c0-3.5,2.4-6.5,5.6-6.5c2.3,0,3.6,1.3,3.6,3.5c0,3.3-2.1,5.9-4.7,6.4
				C13.8,20.8,14.5,21.3,16.4,21.1L16.4,21.1z M11.7,19c2,0,3.4-2.1,3.4-4.5c0-1.2-0.6-2.1-1.9-2.1c-2.1,0-3.4,2.2-3.4,4.5
				C9.8,18.3,10.5,19,11.7,19z"/>
		</g>
	</g>
</g>
</svg>
