<?xml version="1.0" encoding="utf-8"?>
<!-- Generator: Adobe Illustrator 24.3.0, SVG Export Plug-In . SVG Version: 6.00 Build 0)  -->
<svg version="1.1" id="Layer_1" xmlns="http://www.w3.org/2000/svg" xmlns:xlink="http://www.w3.org/1999/xlink" x="0px" y="0px"
	 viewBox="0 0 51.5 47.5" style="enable-background:new 0 0 51.5 47.5;" xml:space="preserve">
<style type="text/css">
	.st0{fill:#003082;}
</style>
<path class="st0" d="M23.9,23.5c-0.6-0.6-1.4-0.9-2.3-0.9h-6.2l2.3-2.3h5.8c0.2,0,0.5,0.1,0.6,0.3l3.4,3.4c0.6,0.6,1.4,0.9,2.3,0.9
	h6.2l-2.3,2.3h-5.8c-0.2,0-0.5-0.1-0.6-0.3L23.9,23.5z M25.7,28.5c0.6,0.6,1.4,0.9,2.3,1h6.8l5.8-5.8L34.7,18h-3.2l4.6,4.6h-6.2
	c-0.2,0-0.4-0.1-0.6-0.2L25.8,19c-0.6-0.6-1.4-0.9-2.3-1h-6.8L11,23.8l5.8,5.8H20l-4.6-4.6h6.2c0.2,0,0.4,0.1,0.6,0.2L25.7,28.5z"/>
</svg>
